<svg width="219" height="32" viewBox="0 0 219 32" fill="none" xmlns="http://www.w3.org/2000/svg">
<path d="M215.616 30.9602C213.199 28.4541 212.508 27.622 211.385 26.3216C210.51 25.2941 210.202 24.6373 210.267 23.8299C210.331 23.0405 210.925 22.3841 211.831 21.6804C213.179 20.6333 214.186 19.7933 216.338 18.1789C216.607 17.9838 216.884 17.8978 217.136 17.918C217.53 17.9498 217.905 18.2328 218.129 18.5939C218.514 19.1848 218.373 19.8235 217.757 20.2975C217.505 20.512 215.087 22.2857 214.203 22.9369C212.974 23.8492 213.017 24.2138 213.661 24.9699C214.731 26.248 215.895 27.4974 217.361 29.0239C217.643 29.3356 217.744 29.6507 217.719 29.9557C217.696 30.2428 217.584 30.5226 217.382 30.7773C217.049 31.1116 216.637 31.2951 216.242 31.2633C216.009 31.2446 215.8 31.1375 215.616 30.9602Z" fill="#545454"/>
<path d="M182.474 18.4682C181.792 18.4133 181.254 17.9185 181.29 17.2532C181.344 16.3547 181.947 16.0421 182.647 16.0984C183.762 16.1521 184.876 16.2237 185.97 16.3118C187.083 16.4014 188.158 16.506 189.176 16.6422C190.16 16.7575 190.562 17.8192 189.981 18.9823C189.721 19.5212 189.364 20.1425 188.909 20.8643C188.599 21.345 188.153 21.5077 187.74 21.4745C186.968 21.4124 186.286 20.6893 186.591 20.0457C186.762 19.7163 186.958 19.2987 187.208 18.8854C185.744 18.6773 184.256 18.5394 182.474 18.4682ZM190.024 27.8704C189.982 28.3907 189.604 28.8298 188.983 28.9062C187.834 29.0485 186.828 28.9855 185.249 28.8584C182.145 28.6085 180.237 27.1908 179.842 24.9198C179.815 24.8092 179.807 24.6822 179.816 24.5745C179.857 24.0542 180.232 23.669 180.635 23.5931C181.24 23.4793 181.671 23.7307 181.984 24.3338C182.734 25.7846 183.451 26.2939 185.73 26.4773C186.645 26.551 187.853 26.576 188.721 26.5556C189.5 26.528 190.085 27.1168 190.024 27.8704Z" fill="#545454"/>
<path d="M157.167 15.4195C156.434 15.1076 155.298 14.637 154.318 14.2511C153.828 14.0491 153.567 13.4863 153.856 12.8054C154.057 12.3339 154.564 12.0859 155.049 12.1249C155.138 12.1321 155.227 12.1573 155.315 12.1824C156.087 12.4613 157.465 13.0598 158.075 13.3436C158.631 13.6052 158.812 14.0531 158.779 14.4658C158.722 15.1655 158.005 15.7759 157.167 15.4195ZM154.818 26.2098C154.408 25.6892 154.562 25.1237 155.094 24.5707C156.513 23.0958 157.53 21.0106 157.599 20.1494C157.652 19.4856 157.315 19.1875 156.548 19.0716C155.405 18.9074 153.936 18.9877 152.349 19.185C151.474 19.2951 150.87 18.7228 150.94 17.8436C150.998 17.126 151.585 16.794 152.169 16.7146C153.502 16.533 155.509 16.4959 157.281 16.6928C159.751 16.9639 160.225 18.9342 160.117 20.2799C159.982 21.9485 159.028 23.9303 157.38 25.784C156.884 26.34 156.206 26.6827 155.614 26.635C155.309 26.6105 155.031 26.4797 154.818 26.2098Z" fill="#545454"/>
<path d="M131.785 19.8048C132.252 20.0591 132.476 20.4202 132.438 20.8867C132.425 21.0482 132.375 21.2247 132.287 21.4163C132.087 21.8877 131.604 22.2822 130.866 22.0242C130.603 21.9307 130.075 21.7618 129.687 21.6403C129.224 23.3547 127.752 24.1391 125.958 23.9947C124.02 23.8387 123.105 22.4286 123.212 21.1009C123.268 20.4012 123.592 19.7411 124.206 19.2849C125.13 18.5827 126.242 18.4556 127.642 18.5503C127.701 18.0493 127.74 17.5649 127.777 17.0984C127.022 17.0557 126.269 16.995 125.515 16.9344C124.905 16.8853 124.411 16.5204 124.48 15.6592C124.531 15.0312 125.065 14.6769 125.659 14.7067L127.959 14.8377L128.04 13.833C128.048 13.7433 128.053 13.6715 128.096 13.5847C127.341 13.542 126.604 13.5007 125.869 13.4415C125.241 13.3909 124.74 12.8811 124.788 12.289C124.838 11.661 125.352 11.1065 125.928 11.1348C127.852 11.2355 129.842 11.4138 131.753 11.4593L131.825 11.465C132.399 11.5113 132.862 12.0361 132.801 12.7897C132.751 13.4177 132.255 13.739 131.66 13.7272L130.526 13.69C130.554 13.7826 130.564 13.8917 130.555 13.9993C130.55 14.2879 130.524 14.6108 130.513 14.9711L131.468 14.9938C132.081 15.0071 132.534 15.4408 132.488 16.2317C132.456 16.8611 131.935 17.2706 131.34 17.2588C130.998 17.2493 130.655 17.2398 130.314 17.2124C130.242 17.8927 130.17 18.5551 130.088 19.1264C130.773 19.3622 131.421 19.613 131.785 19.8048ZM120.996 10.9364C121.606 10.9855 122.321 11.5306 122.234 12.1556C121.868 14.6904 121.596 18.7317 121.457 21.357C121.425 21.9864 120.705 22.398 120.077 22.3474C119.449 22.2969 118.877 21.7813 118.91 21.1519C118.991 19.6957 119.109 17.773 119.258 15.925C119.375 14.4717 119.506 13.0736 119.633 11.9462C119.701 11.3197 120.404 10.8887 120.996 10.9364ZM126.341 21.9307C126.825 21.9697 127.301 21.665 127.499 20.778C126.537 20.3935 125.53 20.5653 125.471 21.3009C125.439 21.6956 125.731 21.8816 126.341 21.9307Z" fill="#545454"/>
<path d="M97.9585 10.6527C97.2252 10.3408 96.0893 9.87016 95.1091 9.48426C94.6197 9.28234 94.3581 8.71952 94.6476 8.03856C94.8481 7.56713 95.3557 7.31906 95.8401 7.35806C95.9298 7.36529 96.0181 7.39045 96.1063 7.41562C96.8785 7.69448 98.2569 8.29302 98.8661 8.57682C99.4229 8.83835 99.6035 9.28629 99.5703 9.69896C99.5139 10.3987 98.7966 11.0091 97.9585 10.6527ZM95.609 21.4429C95.1995 20.9224 95.3534 20.3569 95.8855 19.8038C97.3044 18.329 98.321 16.2438 98.3904 15.3826C98.4438 14.7187 98.1066 14.4207 97.3395 14.3048C96.197 14.1406 94.7278 14.2209 93.1408 14.4182C92.2652 14.5283 91.6611 13.956 91.7319 13.0768C91.7897 12.3592 92.3762 12.0271 92.9605 11.9478C94.2934 11.7662 96.3008 11.7291 98.0727 11.926C100.543 12.1971 101.016 14.1674 100.908 15.5131C100.774 17.1817 99.8196 19.1635 98.1715 21.0172C97.6753 21.5732 96.9976 21.9159 96.4055 21.8682C96.1005 21.8437 95.8221 21.7129 95.609 21.4429Z" fill="#545454"/>
<path d="M62.9178 9.40266C62.8766 8.56866 62.8278 7.15619 62.8821 6.25765C62.9485 5.43232 63.6291 5.05372 64.275 5.10572C64.8492 5.15194 65.4109 5.57639 65.3847 6.35078C65.3591 7.34192 65.3607 8.4436 65.3753 9.38381C65.3942 10.2702 64.6691 10.7536 63.9873 10.6987C63.449 10.6553 62.959 10.2367 62.9178 9.40266ZM73.8822 9.36443C73.2815 9.42441 72.9652 9.09195 72.9324 8.60174C72.8732 7.7663 72.778 7.37941 73.0552 7.07667C73.2728 6.84138 73.8104 6.66796 74.2179 6.9897C74.4726 7.19079 74.5635 7.63151 74.546 8.29825L74.5315 8.47767C74.4925 8.9621 74.3186 9.32733 73.8822 9.36443ZM71.5368 9.33812C71.0272 9.38738 70.611 9.1733 70.5496 8.59049C70.4546 7.75216 70.3938 7.3861 70.6544 7.06398C70.8541 6.82723 71.3709 6.68826 71.8007 6.95762C72.0762 7.12427 72.1657 7.58293 72.1675 8.23317C72.1722 8.84753 72.0285 9.28741 71.5368 9.33812ZM65.5994 18.9366C63.198 18.7072 61.4561 17.4654 61.6439 15.1329C61.8678 12.3519 64.9877 10.8334 68.4807 9.61576C69.3334 9.34131 69.9736 9.46508 70.3701 10.1471C70.7817 10.8665 70.3579 11.645 69.5783 11.9072C67.1815 12.7436 65.5303 13.5136 64.8368 14.0537C64.4132 14.3807 64.2378 14.7639 64.209 15.1227C64.1569 15.7686 64.8134 16.3632 66.0635 16.5361C67.046 16.6694 68.1283 16.6843 69.7109 16.5408C70.5851 16.4487 71.0169 16.9168 71.1006 17.4473C71.1951 18.0689 70.8904 18.7125 70.0643 18.8807C68.8735 19.0918 67.4474 19.0854 66.1735 18.9828L65.5994 18.9366Z" fill="#545454"/>
<path d="M37.8222 15.6168C37.3782 15.0754 37.4238 14.2845 37.9681 13.8047C39.7215 12.2122 40.5131 10.9035 40.2989 10.2001C40.0409 9.36669 39.4239 8.95585 37.522 8.80273C36.2841 8.70306 34.568 8.70937 32.9015 8.77384C31.7237 8.82348 31.2065 8.29427 31.2787 7.39717C31.3307 6.75126 31.7824 6.30006 32.5087 6.25018C34.7954 6.10923 36.2904 6.15736 38.0846 6.30181C40.4708 6.49392 42.5152 7.34472 43.0057 9.5512C43.0844 9.91871 43.1079 10.2998 43.0776 10.6766C42.9562 12.1837 41.9428 13.7815 39.8476 15.5812C39.518 15.8617 39.0191 16.0021 38.5885 15.9674C38.2835 15.9429 38.0037 15.83 37.8222 15.6168Z" fill="#545454"/>
<path d="M7.61325 4.37227C10.2687 4.58606 11.0919 6.02476 10.9156 8.21368C10.8087 9.54138 10.2097 11.8227 9.25067 13.6416C8.97265 14.179 8.45788 14.5168 7.88374 14.4705C7.66844 14.4532 7.43953 14.3806 7.21495 14.2542C6.55915 13.8763 6.52289 13.2053 6.88424 12.5301C7.45823 11.4567 8.23703 9.85802 8.33115 8.24036C8.38544 7.34182 8.29162 6.93698 7.28687 6.85609L6.1027 6.76075L3.86026 13.0812C3.64967 13.6782 3.14212 13.9263 2.63975 13.8858C1.90413 13.8266 1.19824 13.1739 1.56476 12.2102C2.09153 10.826 2.72764 8.98107 3.53412 6.59008C3.06618 6.57046 2.61763 6.53435 2.23941 6.52196C1.37675 6.47056 1.06907 6.03045 1.1283 5.29483C1.1933 4.48745 1.65713 4.10945 2.43441 4.09979C2.977 4.0893 3.66024 4.12625 4.37937 4.16609C4.63884 3.41047 4.9012 2.61898 5.20234 1.79448C5.41437 1.17952 6.03968 0.814519 6.59588 0.859299C7.52886 0.934412 7.93468 1.72553 7.58611 2.69067L6.98528 4.32171L7.61325 4.37227ZM14.989 6.06764C15.0807 6.27367 15.1172 6.4933 15.0999 6.70861C15.0681 7.10333 14.8555 7.50155 14.5152 7.69085C13.9466 8.0243 13.2003 7.87392 12.8532 7.25006C12.4115 6.45605 11.9999 5.7367 11.5912 4.98146C11.2771 4.39637 11.5022 3.61993 12.159 3.31165C12.7412 3.03347 13.4682 3.20035 13.8031 3.751C14.3273 4.64194 14.6535 5.30024 14.989 6.06764Z" fill="#545454"/>
</svg>
