<?xml version="1.0" encoding="UTF-8"?>
<svg id="_レイヤー_2" data-name="レイヤー_2" xmlns="http://www.w3.org/2000/svg" viewBox="0 0 66.9 20.93">
  <defs>
    <style>
      .cls-1 {
        fill: #fdfeff;
      }

      .cls-2 {
        fill: #fff;
      }

      .cls-3 {
        fill: #f29773;
      }
    </style>
  </defs>
  <g id="btn_x5F_bg">
    <rect class="cls-3" width="66.9" height="20.93" rx="4.15" ry="4.15"/>
  </g>
  <g id="btn_x5F_tex">
    <g>
      <g>
        <path class="cls-1" d="M14.52,7.33h1.46s0,1.73,0,1.73h1.05v.77h-1.05v2.01s.84-.25.84-.25l.14.35c-.33.23-.66.45-1,.65v3.31c-.71,0-1.59-.29-2.3-.77l.04-.21c.31.03.62.07.82.06v-1.62c-.32.16-.66.3-1.02.43l-.35-1.16,1.37-.38v-2.42h-.92c-.31,0-.46-.24-.46-.77h1.37v-1.73ZM19.26,8.37c-.24,1.41-.85,2.23-1.67,2.79l-.21-.18c.37-.88.45-1.55.45-3.39h3.68c0,1.01.01,1.91.04,2.22.06.52.3.77.87.72l.04.32c-.7.24-1.43.25-1.88.01-.29-.15-.4-.49-.43-.91-.03-.4-.07-.89-.09-1.59h-.82ZM21.9,11.58c-.16,1.02-.52,1.95-1.08,2.67.43.22.89.41,1.35.59l-.54,1.17c-.49-.21-1.05-.55-1.58-.97-.6.45-1.32.76-2.17.86l-.11-.22c.6-.41,1.06-.87,1.44-1.4-.34-.34-.67-.74-.97-1.18l.21-.2c.4.25.79.5,1.17.72.21-.39.38-.81.51-1.25h-2.04c-.27,0-.4-.35-.41-.77h4.23Z"/>
        <path class="cls-1" d="M25.29,15.58c.4-.61.62-1.1.9-1.88l1.07.54c-.45.72-1.08,1.31-1.78,1.53l-.19-.19ZM27.42,8.87l-.02-.63h-1.44c-.31,0-.46-.17-.46-.77h7.04v.77h-1.85v.63s1.94,0,1.94,0l-.04,2.18h-7.1l-.07-2.18h2.01ZM32.61,12.85v.77h-2.74l-.04,2.38c-.77,0-1.54-.13-2.25-.42l.04-.22c.21.02.43.03.63.03l-.02-1.77h-2.33c-.31,0-.46-.18-.46-.77h7.18ZM31.85,12.31h-5.31c-.31,0-.46-.2-.46-.77h5.77v.77ZM27.7,9.54h-.65v.85s.67,0,.67,0l-.02-.85ZM29.36,10.39l-.02-.85h-.64v.85h.66ZM29.32,8.24h-.59v.63h.6v-.63ZM31,10.39v-.5c0-.27-.13-.35-.42-.35h-.24v.85h.66ZM31.88,13.76c.3.83.53,1.23.93,1.85l-.16.15c-.7-.22-1.5-.79-1.88-1.44l1.11-.56Z"/>
        <path class="cls-1" d="M43.55,9.03v.83l-1.96.02c0,.52-.01,1.03-.03,1.6-.01.29-.06.55-.13.79.44,1.65-.42,3.1-2,3.63l-.21-.24c.59-.7.89-1.27.95-1.89-1.25.63-2.91.15-2.94-1.46-.03-1.48,1.53-2.08,2.63-1.54,0-.28,0-.56-.01-.87l-2.8.03c-.48,0-.56-.41-.56-.82l3.34-.03c-.01-.43-.02-1-.02-1.32l1.77-.04c.01.46.02,1.12.02,1.34l1.96-.02ZM39.06,13c.32,0,.67-.28.77-.87-.2-.41-.48-.59-.73-.59-.32,0-.6.3-.6.79,0,.44.25.67.55.67Z"/>
        <path class="cls-1" d="M53.25,7.97l-1.94,2.88c1.58.11,2.46,1.14,2.46,2.29,0,1.28-.97,2.43-2.48,2.43s-2.22-.74-2.22-1.48c0-.67.53-1.19,1.35-1.19s1.29.53,1.43,1.19c.21-.24.34-.56.33-.98-.03-.93-.73-1.73-2.98-1.21l-.11-.23,1.71-2.84h-1.45c-.62.01-.69-.31-.69-.81l4.58-.04ZM50.13,14.06c0,.33.29.49.66.49.13,0,.26-.02.38-.06-.09-.5-.48-.77-.73-.77-.21,0-.31.14-.31.34Z"/>
      </g>
      <g>
        <path class="cls-2" d="M16.52,5.82c-.26.16-.62.26-.96.26-.55,0-1.06-.24-1.06-.86,0-.34.14-.62.44-.85l-.06-1.12.59-.04.04.86c.26-.09.55-.15.88-.19l.06.37c-1.02.13-1.33.48-1.35.91-.02.51.7.57,1.42.51l.02.13Z"/>
        <path class="cls-2" d="M18.4,4.25c.4-.16.76-.22,1.05-.22.7,0,1.02.38,1.02.83,0,.53-.41,1.04-1.24,1.29l-.05-.08c.39-.3.64-.78.64-1.13,0-.26-.13-.45-.44-.45-.18,0-.52.07-.83.18l-.16-.42ZM19.75,3.82c-.24-.16-.62-.36-.94-.52l.04-.12h.07c.33,0,.77.03,1.08.12l-.25.51Z"/>
        <path class="cls-2" d="M24.75,4.43c-.19-.14-.44-.33-.59-.44.74,1.31-.04,1.99-.76,1.99-.79,0-1.48-.71-.7-2.23h-.36c-.15,0-.24-.05-.24-.29v-.02h1.09l.15.09c-.24.4-.47.95-.47,1.36,0,.32.14.56.52.57.46.02.62-.31.62-.73,0-.3-.08-.65-.18-.97l.32-.24c.27.16.49.29.82.49l-.22.4Z"/>
        <path class="cls-2" d="M28.53,4.27v.28h-.64c0,.24,0,.47,0,.68.26.13.46.3.6.45l-.08.15c-.15-.07-.36-.16-.56-.22-.07.29-.3.47-.69.47h-.02c-.38,0-.58-.21-.58-.52,0-.28.25-.56.73-.51-.01-.42-.03-.89-.05-1.25l.62-.02c0,.15,0,.32,0,.48h.65ZM27.14,5.77c.08,0,.17-.08.17-.31v-.07c-.21-.02-.33.06-.33.21,0,.09.08.17.16.17Z"/>
        <path class="cls-2" d="M30.4,4.25c.4-.16.76-.22,1.05-.22.7,0,1.02.38,1.02.83,0,.53-.41,1.04-1.24,1.29l-.05-.08c.39-.3.64-.78.64-1.13,0-.26-.13-.45-.44-.45-.18,0-.52.07-.83.18l-.16-.42ZM31.75,3.82c-.24-.16-.62-.36-.94-.52l.04-.12h.07c.33,0,.77.03,1.08.12l-.25.51Z"/>
      </g>
    </g>
  </g>
</svg>